<mxfile host="Electron" modified="2024-06-17T07:17:28.892Z" agent="Mozilla/5.0 (Windows NT 10.0; Win64; x64) AppleWebKit/537.36 (KHTML, like Gecko) draw.io/24.4.0 Chrome/120.0.6099.109 Electron/28.1.0 Safari/537.36" etag="6UnedS0DowUKRiZ8RhiI" version="24.4.0" type="device">
  <diagram name="Page-1" id="7WFIXxiKZeKs0zez9FQ8">
    <mxGraphModel dx="1628" dy="956" grid="1" gridSize="10" guides="1" tooltips="1" connect="1" arrows="1" fold="1" page="1" pageScale="1" pageWidth="850" pageHeight="1100" math="0" shadow="0">
      <root>
        <mxCell id="0" />
        <mxCell id="1" parent="0" />
        <mxCell id="9O78wGGuVozdPFEIfdjM-1" value="&lt;i&gt;&lt;font style=&quot;font-size: 18px;&quot;&gt;IGenome (Interface)&lt;/font&gt;&lt;/i&gt;" style="swimlane;fontStyle=1;align=center;verticalAlign=top;childLayout=stackLayout;horizontal=1;startSize=40;horizontalStack=0;resizeParent=1;resizeParentMax=0;resizeLast=0;collapsible=1;marginBottom=0;whiteSpace=wrap;html=1;" parent="1" vertex="1">
          <mxGeometry x="2070" y="860" width="300" height="128" as="geometry" />
        </mxCell>
        <mxCell id="9O78wGGuVozdPFEIfdjM-2" value="" style="line;strokeWidth=1;fillColor=none;align=left;verticalAlign=middle;spacingTop=-1;spacingLeft=3;spacingRight=3;rotatable=0;labelPosition=right;points=[];portConstraint=eastwest;strokeColor=inherit;" parent="9O78wGGuVozdPFEIfdjM-1" vertex="1">
          <mxGeometry y="40" width="300" height="8" as="geometry" />
        </mxCell>
        <mxCell id="9O78wGGuVozdPFEIfdjM-3" value="&lt;div&gt;&lt;span style=&quot;background-color: initial;&quot;&gt;+ mutate () {abstract}&lt;/span&gt;&lt;br&gt;&lt;/div&gt;&lt;div&gt;&lt;span style=&quot;background-color: initial;&quot;&gt;+ clone () : IGenome {abstract}&lt;/span&gt;&lt;/div&gt;" style="text;strokeColor=none;fillColor=none;align=left;verticalAlign=top;spacingLeft=4;spacingRight=4;overflow=hidden;rotatable=0;points=[[0,0.5],[1,0.5]];portConstraint=eastwest;whiteSpace=wrap;html=1;" parent="9O78wGGuVozdPFEIfdjM-1" vertex="1">
          <mxGeometry y="48" width="300" height="80" as="geometry" />
        </mxCell>
        <mxCell id="9O78wGGuVozdPFEIfdjM-4" value="&lt;i&gt;&lt;font style=&quot;font-size: 18px;&quot;&gt;ManaConsumer (Abstract class)&lt;/font&gt;&lt;/i&gt;" style="swimlane;fontStyle=1;align=center;verticalAlign=top;childLayout=stackLayout;horizontal=1;startSize=40;horizontalStack=0;resizeParent=1;resizeParentMax=0;resizeLast=0;collapsible=1;marginBottom=0;whiteSpace=wrap;html=1;" parent="1" vertex="1">
          <mxGeometry x="810" y="310" width="340" height="304" as="geometry" />
        </mxCell>
        <mxCell id="9O78wGGuVozdPFEIfdjM-5" value="&lt;div&gt;# constantCost : double&lt;/div&gt;&lt;div&gt;# useCost : double&lt;/div&gt;" style="text;strokeColor=none;fillColor=none;align=left;verticalAlign=top;spacingLeft=4;spacingRight=4;overflow=hidden;rotatable=0;points=[[0,0.5],[1,0.5]];portConstraint=eastwest;whiteSpace=wrap;html=1;" parent="9O78wGGuVozdPFEIfdjM-4" vertex="1">
          <mxGeometry y="40" width="340" height="84" as="geometry" />
        </mxCell>
        <mxCell id="9O78wGGuVozdPFEIfdjM-6" value="" style="line;strokeWidth=1;fillColor=none;align=left;verticalAlign=middle;spacingTop=-1;spacingLeft=3;spacingRight=3;rotatable=0;labelPosition=right;points=[];portConstraint=eastwest;strokeColor=inherit;" parent="9O78wGGuVozdPFEIfdjM-4" vertex="1">
          <mxGeometry y="124" width="340" height="8" as="geometry" />
        </mxCell>
        <mxCell id="9O78wGGuVozdPFEIfdjM-7" value="+ getConstantCost() : double&lt;div&gt;+ getUseCost() : double&lt;br&gt;&lt;div&gt;+ getWeighedUseCost(weight : double = 1) : double&lt;/div&gt;&lt;div&gt;+ calculateCosts () {abstract}&lt;/div&gt;&lt;div&gt;# weightFunction (weight : double) : double {static, for all weight functions (identity, quadratic, etc.)}&lt;/div&gt;&lt;div&gt;# getWeightFunctionParameter () : MC_WeightFunctionEnum {abstract}&lt;/div&gt;&lt;div&gt;# applyWeightFunction (weight : double) : double&lt;/div&gt;&lt;div&gt;+ default constructor&lt;/div&gt;&lt;div&gt;+ copy constructor&lt;/div&gt;&lt;/div&gt;" style="text;strokeColor=none;fillColor=none;align=left;verticalAlign=top;spacingLeft=4;spacingRight=4;overflow=hidden;rotatable=0;points=[[0,0.5],[1,0.5]];portConstraint=eastwest;whiteSpace=wrap;html=1;" parent="9O78wGGuVozdPFEIfdjM-4" vertex="1">
          <mxGeometry y="132" width="340" height="172" as="geometry" />
        </mxCell>
        <mxCell id="9O78wGGuVozdPFEIfdjM-8" value="&lt;i&gt;&lt;font style=&quot;font-size: 18px;&quot;&gt;IEvolvable (Interface)&lt;/font&gt;&lt;/i&gt;" style="swimlane;fontStyle=1;align=center;verticalAlign=top;childLayout=stackLayout;horizontal=1;startSize=30;horizontalStack=0;resizeParent=1;resizeParentMax=0;resizeLast=0;collapsible=1;marginBottom=0;whiteSpace=wrap;html=1;" parent="1" vertex="1">
          <mxGeometry x="425" y="710" width="240" height="130" as="geometry" />
        </mxCell>
        <mxCell id="9O78wGGuVozdPFEIfdjM-9" value="{none}" style="text;strokeColor=none;fillColor=none;align=left;verticalAlign=top;spacingLeft=4;spacingRight=4;overflow=hidden;rotatable=0;points=[[0,0.5],[1,0.5]];portConstraint=eastwest;whiteSpace=wrap;html=1;" parent="9O78wGGuVozdPFEIfdjM-8" vertex="1">
          <mxGeometry y="30" width="240" height="26" as="geometry" />
        </mxCell>
        <mxCell id="9O78wGGuVozdPFEIfdjM-10" value="" style="line;strokeWidth=1;fillColor=none;align=left;verticalAlign=middle;spacingTop=-1;spacingLeft=3;spacingRight=3;rotatable=0;labelPosition=right;points=[];portConstraint=eastwest;strokeColor=inherit;" parent="9O78wGGuVozdPFEIfdjM-8" vertex="1">
          <mxGeometry y="56" width="240" height="8" as="geometry" />
        </mxCell>
        <mxCell id="9O78wGGuVozdPFEIfdjM-11" value="+ generate () {abstract}&lt;div&gt;+ mutate () {abstractl}&lt;/div&gt;&lt;div&gt;+ getGenomeCopy () : IGenome {abstract}&lt;/div&gt;" style="text;strokeColor=none;fillColor=none;align=left;verticalAlign=top;spacingLeft=4;spacingRight=4;overflow=hidden;rotatable=0;points=[[0,0.5],[1,0.5]];portConstraint=eastwest;whiteSpace=wrap;html=1;" parent="9O78wGGuVozdPFEIfdjM-8" vertex="1">
          <mxGeometry y="64" width="240" height="66" as="geometry" />
        </mxCell>
        <mxCell id="9O78wGGuVozdPFEIfdjM-12" value="&lt;font style=&quot;font-size: 18px;&quot;&gt;MC_WeightFunctionEnum&lt;/font&gt;" style="html=1;whiteSpace=wrap;" parent="1" vertex="1">
          <mxGeometry x="1400" y="353" width="230" height="50" as="geometry" />
        </mxCell>
        <mxCell id="9O78wGGuVozdPFEIfdjM-18" value="Extends" style="endArrow=block;endSize=16;endFill=0;html=1;rounded=0;exitX=0.5;exitY=0;exitDx=0;exitDy=0;entryX=0.501;entryY=1.016;entryDx=0;entryDy=0;entryPerimeter=0;" parent="1" source="9O78wGGuVozdPFEIfdjM-22" target="9O78wGGuVozdPFEIfdjM-7" edge="1">
          <mxGeometry width="160" relative="1" as="geometry">
            <mxPoint x="980" y="930" as="sourcePoint" />
            <mxPoint x="560" y="770" as="targetPoint" />
          </mxGeometry>
        </mxCell>
        <mxCell id="9O78wGGuVozdPFEIfdjM-19" value="Extends" style="endArrow=block;endSize=16;endFill=0;html=1;rounded=0;entryX=1;entryY=0.5;entryDx=0;entryDy=0;exitX=0.25;exitY=0;exitDx=0;exitDy=0;" parent="1" source="9O78wGGuVozdPFEIfdjM-22" target="9O78wGGuVozdPFEIfdjM-11" edge="1">
          <mxGeometry width="160" relative="1" as="geometry">
            <mxPoint x="480" y="750" as="sourcePoint" />
            <mxPoint x="410" y="640" as="targetPoint" />
          </mxGeometry>
        </mxCell>
        <mxCell id="9O78wGGuVozdPFEIfdjM-21" value="Extends" style="endArrow=block;endSize=16;endFill=0;html=1;rounded=0;exitX=0.5;exitY=0;exitDx=0;exitDy=0;entryX=0.5;entryY=1;entryDx=0;entryDy=0;" parent="1" source="9O78wGGuVozdPFEIfdjM-4" target="JWEfFdAkf09Q-wL82Dwv-13" edge="1">
          <mxGeometry width="160" relative="1" as="geometry">
            <mxPoint x="1050" y="243" as="sourcePoint" />
            <mxPoint x="980" y="110" as="targetPoint" />
          </mxGeometry>
        </mxCell>
        <mxCell id="9O78wGGuVozdPFEIfdjM-22" value="&lt;font style=&quot;font-size: 18px;&quot;&gt;NeuralNetwork&lt;/font&gt;" style="swimlane;fontStyle=1;align=center;verticalAlign=top;childLayout=stackLayout;horizontal=1;startSize=30;horizontalStack=0;resizeParent=1;resizeParentMax=0;resizeLast=0;collapsible=1;marginBottom=0;whiteSpace=wrap;html=1;" parent="1" vertex="1">
          <mxGeometry x="860" y="890" width="220" height="236" as="geometry" />
        </mxCell>
        <mxCell id="9O78wGGuVozdPFEIfdjM-23" value="&lt;div&gt;- visionNode : Vision&lt;br&gt;&lt;/div&gt;&lt;div&gt;- genome : NeuralNetworkGenome&lt;/div&gt;&lt;div&gt;- inputNeuronCount : uint&lt;/div&gt;&lt;div&gt;- outputNeuronCount : uint&lt;/div&gt;&lt;div&gt;- hiddenNeuronCount : uint&lt;/div&gt;&lt;div&gt;- neurons : Neuron[]&lt;/div&gt;&lt;div&gt;- synapses : Synapse[]&lt;/div&gt;" style="text;strokeColor=none;fillColor=none;align=left;verticalAlign=top;spacingLeft=4;spacingRight=4;overflow=hidden;rotatable=0;points=[[0,0.5],[1,0.5]];portConstraint=eastwest;whiteSpace=wrap;html=1;" parent="9O78wGGuVozdPFEIfdjM-22" vertex="1">
          <mxGeometry y="30" width="220" height="110" as="geometry" />
        </mxCell>
        <mxCell id="9O78wGGuVozdPFEIfdjM-24" value="" style="line;strokeWidth=1;fillColor=none;align=left;verticalAlign=middle;spacingTop=-1;spacingLeft=3;spacingRight=3;rotatable=0;labelPosition=right;points=[];portConstraint=eastwest;strokeColor=inherit;" parent="9O78wGGuVozdPFEIfdjM-22" vertex="1">
          <mxGeometry y="140" width="220" height="8" as="geometry" />
        </mxCell>
        <mxCell id="9O78wGGuVozdPFEIfdjM-25" value="&lt;div&gt;+ NeuralNetwork (genome : NeuralNetworkGenome)&lt;/div&gt;&lt;div&gt;+ run (input : AI_Input) : AI_Output&lt;div&gt;+ getVisionData () : VisionData&lt;/div&gt;&lt;/div&gt;" style="text;strokeColor=none;fillColor=none;align=left;verticalAlign=top;spacingLeft=4;spacingRight=4;overflow=hidden;rotatable=0;points=[[0,0.5],[1,0.5]];portConstraint=eastwest;whiteSpace=wrap;html=1;" parent="9O78wGGuVozdPFEIfdjM-22" vertex="1">
          <mxGeometry y="148" width="220" height="88" as="geometry" />
        </mxCell>
        <mxCell id="9O78wGGuVozdPFEIfdjM-27" value="&lt;font style=&quot;font-size: 18px;&quot;&gt;VisionData (struct)&lt;/font&gt;" style="swimlane;fontStyle=1;align=center;verticalAlign=top;childLayout=stackLayout;horizontal=1;startSize=30;horizontalStack=0;resizeParent=1;resizeParentMax=0;resizeLast=0;collapsible=1;marginBottom=0;whiteSpace=wrap;html=1;" parent="1" vertex="1">
          <mxGeometry x="1630" y="930" width="250" height="154" as="geometry" />
        </mxCell>
        <mxCell id="9O78wGGuVozdPFEIfdjM-28" value="&lt;div&gt;+ rayCount : uint&lt;/div&gt;&lt;div&gt;+ raysData : VisionRayData[]&lt;/div&gt;" style="text;strokeColor=none;fillColor=none;align=left;verticalAlign=top;spacingLeft=4;spacingRight=4;overflow=hidden;rotatable=0;points=[[0,0.5],[1,0.5]];portConstraint=eastwest;whiteSpace=wrap;html=1;" parent="9O78wGGuVozdPFEIfdjM-27" vertex="1">
          <mxGeometry y="30" width="250" height="54" as="geometry" />
        </mxCell>
        <mxCell id="9O78wGGuVozdPFEIfdjM-29" value="" style="line;strokeWidth=1;fillColor=none;align=left;verticalAlign=middle;spacingTop=-1;spacingLeft=3;spacingRight=3;rotatable=0;labelPosition=right;points=[];portConstraint=eastwest;strokeColor=inherit;" parent="9O78wGGuVozdPFEIfdjM-27" vertex="1">
          <mxGeometry y="84" width="250" height="8" as="geometry" />
        </mxCell>
        <mxCell id="9O78wGGuVozdPFEIfdjM-30" value="+ clone () : VisionData&lt;div&gt;+ cloneRaysData () : VisionRayData[]&lt;/div&gt;&lt;div&gt;+ VisionData (rayCount : unit)&lt;/div&gt;" style="text;strokeColor=none;fillColor=none;align=left;verticalAlign=top;spacingLeft=4;spacingRight=4;overflow=hidden;rotatable=0;points=[[0,0.5],[1,0.5]];portConstraint=eastwest;whiteSpace=wrap;html=1;" parent="9O78wGGuVozdPFEIfdjM-27" vertex="1">
          <mxGeometry y="92" width="250" height="62" as="geometry" />
        </mxCell>
        <mxCell id="9O78wGGuVozdPFEIfdjM-31" value="&lt;font style=&quot;font-size: 18px;&quot;&gt;VisionRay&lt;span style=&quot;background-color: initial;&quot;&gt;Data (struct)&lt;/span&gt;&lt;/font&gt;" style="swimlane;fontStyle=1;align=center;verticalAlign=top;childLayout=stackLayout;horizontal=1;startSize=30;horizontalStack=0;resizeParent=1;resizeParentMax=0;resizeLast=0;collapsible=1;marginBottom=0;whiteSpace=wrap;html=1;" parent="1" vertex="1">
          <mxGeometry x="1720" y="560" width="235" height="154" as="geometry" />
        </mxCell>
        <mxCell id="9O78wGGuVozdPFEIfdjM-32" value="+ distance : double&lt;div&gt;+ angle : double&lt;/div&gt;&lt;div&gt;+ isManaPellet : bool&lt;/div&gt;&lt;div&gt;+ isWizbit : bool&lt;/div&gt;&lt;div&gt;(to be extended)&lt;/div&gt;" style="text;strokeColor=none;fillColor=none;align=left;verticalAlign=top;spacingLeft=4;spacingRight=4;overflow=hidden;rotatable=0;points=[[0,0.5],[1,0.5]];portConstraint=eastwest;whiteSpace=wrap;html=1;" parent="9O78wGGuVozdPFEIfdjM-31" vertex="1">
          <mxGeometry y="30" width="235" height="84" as="geometry" />
        </mxCell>
        <mxCell id="9O78wGGuVozdPFEIfdjM-33" value="" style="line;strokeWidth=1;fillColor=none;align=left;verticalAlign=middle;spacingTop=-1;spacingLeft=3;spacingRight=3;rotatable=0;labelPosition=right;points=[];portConstraint=eastwest;strokeColor=inherit;" parent="9O78wGGuVozdPFEIfdjM-31" vertex="1">
          <mxGeometry y="114" width="235" height="8" as="geometry" />
        </mxCell>
        <mxCell id="9O78wGGuVozdPFEIfdjM-34" value="(nothing)" style="text;strokeColor=none;fillColor=none;align=left;verticalAlign=top;spacingLeft=4;spacingRight=4;overflow=hidden;rotatable=0;points=[[0,0.5],[1,0.5]];portConstraint=eastwest;whiteSpace=wrap;html=1;" parent="9O78wGGuVozdPFEIfdjM-31" vertex="1">
          <mxGeometry y="122" width="235" height="32" as="geometry" />
        </mxCell>
        <mxCell id="9O78wGGuVozdPFEIfdjM-36" value="" style="endArrow=diamondThin;endFill=1;endSize=24;html=1;rounded=0;exitX=0.436;exitY=1.15;exitDx=0;exitDy=0;entryX=0.75;entryY=0;entryDx=0;entryDy=0;exitPerimeter=0;" parent="1" source="9O78wGGuVozdPFEIfdjM-34" target="9O78wGGuVozdPFEIfdjM-27" edge="1">
          <mxGeometry width="160" relative="1" as="geometry">
            <mxPoint x="1875" y="560" as="sourcePoint" />
            <mxPoint x="1785" y="560" as="targetPoint" />
          </mxGeometry>
        </mxCell>
        <mxCell id="9O78wGGuVozdPFEIfdjM-37" value="&lt;font style=&quot;font-size: 18px;&quot;&gt;AI_Input (struct)&lt;/font&gt;" style="swimlane;fontStyle=1;align=center;verticalAlign=top;childLayout=stackLayout;horizontal=1;startSize=30;horizontalStack=0;resizeParent=1;resizeParentMax=0;resizeLast=0;collapsible=1;marginBottom=0;whiteSpace=wrap;html=1;" parent="1" vertex="1">
          <mxGeometry x="1395" y="625" width="200" height="178" as="geometry" />
        </mxCell>
        <mxCell id="9O78wGGuVozdPFEIfdjM-38" value="+ hpPercent : double&lt;div&gt;+ manaPercent : double&lt;/div&gt;&lt;div&gt;+ movementCost : double&lt;/div&gt;&lt;div&gt;+ constant : double = 1 {readonly}&lt;/div&gt;&lt;div&gt;+ random : double&lt;/div&gt;&lt;div&gt;+ visionData : VisionData&lt;/div&gt;" style="text;strokeColor=none;fillColor=none;align=left;verticalAlign=top;spacingLeft=4;spacingRight=4;overflow=hidden;rotatable=0;points=[[0,0.5],[1,0.5]];portConstraint=eastwest;whiteSpace=wrap;html=1;" parent="9O78wGGuVozdPFEIfdjM-37" vertex="1">
          <mxGeometry y="30" width="200" height="114" as="geometry" />
        </mxCell>
        <mxCell id="9O78wGGuVozdPFEIfdjM-39" value="" style="line;strokeWidth=1;fillColor=none;align=left;verticalAlign=middle;spacingTop=-1;spacingLeft=3;spacingRight=3;rotatable=0;labelPosition=right;points=[];portConstraint=eastwest;strokeColor=inherit;" parent="9O78wGGuVozdPFEIfdjM-37" vertex="1">
          <mxGeometry y="144" width="200" height="8" as="geometry" />
        </mxCell>
        <mxCell id="9O78wGGuVozdPFEIfdjM-40" value="(nothing)" style="text;strokeColor=none;fillColor=none;align=left;verticalAlign=top;spacingLeft=4;spacingRight=4;overflow=hidden;rotatable=0;points=[[0,0.5],[1,0.5]];portConstraint=eastwest;whiteSpace=wrap;html=1;" parent="9O78wGGuVozdPFEIfdjM-37" vertex="1">
          <mxGeometry y="152" width="200" height="26" as="geometry" />
        </mxCell>
        <mxCell id="9O78wGGuVozdPFEIfdjM-42" value="" style="endArrow=diamondThin;endFill=1;endSize=24;html=1;rounded=0;exitX=0.228;exitY=1.075;exitDx=0;exitDy=0;entryX=1;entryY=0;entryDx=0;entryDy=0;exitPerimeter=0;" parent="1" source="9O78wGGuVozdPFEIfdjM-40" target="9O78wGGuVozdPFEIfdjM-22" edge="1">
          <mxGeometry width="160" relative="1" as="geometry">
            <mxPoint x="1200" y="760" as="sourcePoint" />
            <mxPoint x="1110" y="930" as="targetPoint" />
          </mxGeometry>
        </mxCell>
        <mxCell id="9O78wGGuVozdPFEIfdjM-43" value="" style="endArrow=diamondThin;endFill=1;endSize=24;html=1;rounded=0;exitX=0;exitY=0.5;exitDx=0;exitDy=0;entryX=1;entryY=0.5;entryDx=0;entryDy=0;" parent="1" source="9O78wGGuVozdPFEIfdjM-12" target="9O78wGGuVozdPFEIfdjM-5" edge="1">
          <mxGeometry width="160" relative="1" as="geometry">
            <mxPoint x="1270" y="554" as="sourcePoint" />
            <mxPoint x="1270" y="710" as="targetPoint" />
          </mxGeometry>
        </mxCell>
        <mxCell id="9O78wGGuVozdPFEIfdjM-44" value="&lt;font style=&quot;font-size: 18px;&quot;&gt;AI_Output (struct)&lt;/font&gt;" style="swimlane;fontStyle=1;align=center;verticalAlign=top;childLayout=stackLayout;horizontal=1;startSize=30;horizontalStack=0;resizeParent=1;resizeParentMax=0;resizeLast=0;collapsible=1;marginBottom=0;whiteSpace=wrap;html=1;" parent="1" vertex="1">
          <mxGeometry x="1160" y="655" width="190" height="148" as="geometry" />
        </mxCell>
        <mxCell id="9O78wGGuVozdPFEIfdjM-45" value="+ moveX : double&lt;div&gt;+ moveY : double&lt;/div&gt;&lt;div&gt;+ rotate : double&lt;/div&gt;&lt;div&gt;+ reproduce : double&lt;/div&gt;&lt;div&gt;(to be extended)&lt;/div&gt;" style="text;strokeColor=none;fillColor=none;align=left;verticalAlign=top;spacingLeft=4;spacingRight=4;overflow=hidden;rotatable=0;points=[[0,0.5],[1,0.5]];portConstraint=eastwest;whiteSpace=wrap;html=1;" parent="9O78wGGuVozdPFEIfdjM-44" vertex="1">
          <mxGeometry y="30" width="190" height="84" as="geometry" />
        </mxCell>
        <mxCell id="9O78wGGuVozdPFEIfdjM-46" value="" style="line;strokeWidth=1;fillColor=none;align=left;verticalAlign=middle;spacingTop=-1;spacingLeft=3;spacingRight=3;rotatable=0;labelPosition=right;points=[];portConstraint=eastwest;strokeColor=inherit;" parent="9O78wGGuVozdPFEIfdjM-44" vertex="1">
          <mxGeometry y="114" width="190" height="8" as="geometry" />
        </mxCell>
        <mxCell id="9O78wGGuVozdPFEIfdjM-47" value="(nothing)" style="text;strokeColor=none;fillColor=none;align=left;verticalAlign=top;spacingLeft=4;spacingRight=4;overflow=hidden;rotatable=0;points=[[0,0.5],[1,0.5]];portConstraint=eastwest;whiteSpace=wrap;html=1;" parent="9O78wGGuVozdPFEIfdjM-44" vertex="1">
          <mxGeometry y="122" width="190" height="26" as="geometry" />
        </mxCell>
        <mxCell id="9O78wGGuVozdPFEIfdjM-48" value="" style="endArrow=diamondThin;endFill=1;endSize=24;html=1;rounded=0;exitX=0.246;exitY=1.256;exitDx=0;exitDy=0;entryX=0.75;entryY=0;entryDx=0;entryDy=0;exitPerimeter=0;" parent="1" source="9O78wGGuVozdPFEIfdjM-47" target="9O78wGGuVozdPFEIfdjM-22" edge="1">
          <mxGeometry width="160" relative="1" as="geometry">
            <mxPoint x="1472" y="1046" as="sourcePoint" />
            <mxPoint x="1045" y="930" as="targetPoint" />
            <Array as="points" />
          </mxGeometry>
        </mxCell>
        <mxCell id="9O78wGGuVozdPFEIfdjM-50" value="&lt;font style=&quot;font-size: 18px;&quot;&gt;Vision&lt;/font&gt;" style="swimlane;fontStyle=1;align=center;verticalAlign=top;childLayout=stackLayout;horizontal=1;startSize=30;horizontalStack=0;resizeParent=1;resizeParentMax=0;resizeLast=0;collapsible=1;marginBottom=0;whiteSpace=wrap;html=1;" parent="1" vertex="1">
          <mxGeometry x="1110" y="1310" width="290" height="220" as="geometry" />
        </mxCell>
        <mxCell id="9O78wGGuVozdPFEIfdjM-51" value="- genome : VisionGenome&lt;div&gt;- fov : double&lt;/div&gt;&lt;div&gt;- rayCount : uint&lt;/div&gt;&lt;div&gt;- range : double&lt;/div&gt;&lt;div&gt;- rayNodes : Raycast2D[]&lt;/div&gt;" style="text;strokeColor=none;fillColor=none;align=left;verticalAlign=top;spacingLeft=4;spacingRight=4;overflow=hidden;rotatable=0;points=[[0,0.5],[1,0.5]];portConstraint=eastwest;whiteSpace=wrap;html=1;" parent="9O78wGGuVozdPFEIfdjM-50" vertex="1">
          <mxGeometry y="30" width="290" height="90" as="geometry" />
        </mxCell>
        <mxCell id="9O78wGGuVozdPFEIfdjM-52" value="" style="line;strokeWidth=1;fillColor=none;align=left;verticalAlign=middle;spacingTop=-1;spacingLeft=3;spacingRight=3;rotatable=0;labelPosition=right;points=[];portConstraint=eastwest;strokeColor=inherit;" parent="9O78wGGuVozdPFEIfdjM-50" vertex="1">
          <mxGeometry y="120" width="290" height="8" as="geometry" />
        </mxCell>
        <mxCell id="9O78wGGuVozdPFEIfdjM-53" value="+ getVisionData () : VisionData&lt;div&gt;+ updateGenome (newGenome : VisionGenome)&lt;/div&gt;&lt;div&gt;+ Vision (genome : VisionGenome)&lt;/div&gt;&lt;div&gt;- generate ()&lt;/div&gt;&lt;div&gt;- initRaycastNodes ()&lt;/div&gt;" style="text;strokeColor=none;fillColor=none;align=left;verticalAlign=top;spacingLeft=4;spacingRight=4;overflow=hidden;rotatable=0;points=[[0,0.5],[1,0.5]];portConstraint=eastwest;whiteSpace=wrap;html=1;" parent="9O78wGGuVozdPFEIfdjM-50" vertex="1">
          <mxGeometry y="128" width="290" height="92" as="geometry" />
        </mxCell>
        <mxCell id="9O78wGGuVozdPFEIfdjM-55" value="&lt;font style=&quot;font-size: 18px;&quot;&gt;Godot.Node2D&lt;/font&gt;" style="html=1;whiteSpace=wrap;" parent="1" vertex="1">
          <mxGeometry x="1160" y="1110" width="160" height="50" as="geometry" />
        </mxCell>
        <mxCell id="9O78wGGuVozdPFEIfdjM-56" value="Extends" style="endArrow=block;endSize=16;endFill=0;html=1;rounded=0;entryX=0.5;entryY=1;entryDx=0;entryDy=0;exitX=0.5;exitY=0;exitDx=0;exitDy=0;" parent="1" source="9O78wGGuVozdPFEIfdjM-50" target="9O78wGGuVozdPFEIfdjM-55" edge="1">
          <mxGeometry width="160" relative="1" as="geometry">
            <mxPoint x="1590" y="1220" as="sourcePoint" />
            <mxPoint x="1640" y="680" as="targetPoint" />
          </mxGeometry>
        </mxCell>
        <mxCell id="9O78wGGuVozdPFEIfdjM-57" value="" style="endArrow=diamondThin;endFill=1;endSize=24;html=1;rounded=0;exitX=0.25;exitY=0;exitDx=0;exitDy=0;entryX=0.796;entryY=1.009;entryDx=0;entryDy=0;entryPerimeter=0;" parent="1" source="9O78wGGuVozdPFEIfdjM-50" target="9O78wGGuVozdPFEIfdjM-25" edge="1">
          <mxGeometry width="160" relative="1" as="geometry">
            <mxPoint x="1235" y="1156.29" as="sourcePoint" />
            <mxPoint x="1055.4" y="1095.0080000000003" as="targetPoint" />
            <Array as="points" />
          </mxGeometry>
        </mxCell>
        <mxCell id="JWEfFdAkf09Q-wL82Dwv-1" value="&lt;font style=&quot;font-size: 18px;&quot;&gt;VisionGenome&lt;/font&gt;" style="swimlane;fontStyle=1;align=center;verticalAlign=top;childLayout=stackLayout;horizontal=1;startSize=32;horizontalStack=0;resizeParent=1;resizeParentMax=0;resizeLast=0;collapsible=1;marginBottom=0;whiteSpace=wrap;html=1;" parent="1" vertex="1">
          <mxGeometry x="1760" y="1200" width="260" height="250" as="geometry" />
        </mxCell>
        <mxCell id="JWEfFdAkf09Q-wL82Dwv-2" value="- fov : double&lt;div&gt;- rayCountCode : uint&lt;/div&gt;&lt;div&gt;- range : double&lt;/div&gt;" style="text;strokeColor=none;fillColor=none;align=left;verticalAlign=top;spacingLeft=4;spacingRight=4;overflow=hidden;rotatable=0;points=[[0,0.5],[1,0.5]];portConstraint=eastwest;whiteSpace=wrap;html=1;" parent="JWEfFdAkf09Q-wL82Dwv-1" vertex="1">
          <mxGeometry y="32" width="260" height="58" as="geometry" />
        </mxCell>
        <mxCell id="JWEfFdAkf09Q-wL82Dwv-3" value="" style="line;strokeWidth=1;fillColor=none;align=left;verticalAlign=middle;spacingTop=-1;spacingLeft=3;spacingRight=3;rotatable=0;labelPosition=right;points=[];portConstraint=eastwest;strokeColor=inherit;" parent="JWEfFdAkf09Q-wL82Dwv-1" vertex="1">
          <mxGeometry y="90" width="260" height="8" as="geometry" />
        </mxCell>
        <mxCell id="JWEfFdAkf09Q-wL82Dwv-4" value="+ getFOV () : double&lt;div&gt;+ getRayCountCode () : uint&lt;/div&gt;&lt;div&gt;+ getRange () : double&lt;/div&gt;&lt;div&gt;+ calcRayCount () : uint&lt;/div&gt;&lt;div&gt;+ VisionGenome (fov : double, rayCountCode : uint, range : double)&lt;/div&gt;&lt;div&gt;- mutateFOV ()&lt;/div&gt;&lt;div&gt;- mutateRayCountCode ()&lt;/div&gt;&lt;div&gt;- mutateRange ()&lt;/div&gt;" style="text;strokeColor=none;fillColor=none;align=left;verticalAlign=top;spacingLeft=4;spacingRight=4;overflow=hidden;rotatable=0;points=[[0,0.5],[1,0.5]];portConstraint=eastwest;whiteSpace=wrap;html=1;" parent="JWEfFdAkf09Q-wL82Dwv-1" vertex="1">
          <mxGeometry y="98" width="260" height="152" as="geometry" />
        </mxCell>
        <mxCell id="JWEfFdAkf09Q-wL82Dwv-5" value="Extends" style="endArrow=block;endSize=16;endFill=0;html=1;rounded=0;exitX=0.5;exitY=0;exitDx=0;exitDy=0;entryX=0.12;entryY=0.997;entryDx=0;entryDy=0;entryPerimeter=0;" parent="1" source="JWEfFdAkf09Q-wL82Dwv-1" target="9O78wGGuVozdPFEIfdjM-3" edge="1">
          <mxGeometry width="160" relative="1" as="geometry">
            <mxPoint x="1995" y="1190" as="sourcePoint" />
            <mxPoint x="2080" y="1050" as="targetPoint" />
          </mxGeometry>
        </mxCell>
        <mxCell id="JWEfFdAkf09Q-wL82Dwv-11" value="" style="endArrow=diamondThin;endFill=1;endSize=24;html=1;rounded=0;exitX=0.25;exitY=0;exitDx=0;exitDy=0;entryX=1;entryY=0.5;entryDx=0;entryDy=0;" parent="1" source="9O78wGGuVozdPFEIfdjM-27" target="9O78wGGuVozdPFEIfdjM-38" edge="1">
          <mxGeometry width="160" relative="1" as="geometry">
            <mxPoint x="1451" y="815" as="sourcePoint" />
            <mxPoint x="1120" y="997" as="targetPoint" />
          </mxGeometry>
        </mxCell>
        <mxCell id="JWEfFdAkf09Q-wL82Dwv-12" value="" style="endArrow=diamondThin;endFill=1;endSize=24;html=1;rounded=0;exitX=0;exitY=0.5;exitDx=0;exitDy=0;entryX=1;entryY=0.5;entryDx=0;entryDy=0;" parent="1" source="9O78wGGuVozdPFEIfdjM-28" target="9O78wGGuVozdPFEIfdjM-23" edge="1">
          <mxGeometry width="160" relative="1" as="geometry">
            <mxPoint x="1478" y="1100" as="sourcePoint" />
            <mxPoint x="1110" y="987" as="targetPoint" />
          </mxGeometry>
        </mxCell>
        <mxCell id="JWEfFdAkf09Q-wL82Dwv-13" value="&lt;font style=&quot;font-size: 18px;&quot;&gt;Godot.Node2D&lt;/font&gt;" style="html=1;whiteSpace=wrap;" parent="1" vertex="1">
          <mxGeometry x="900" y="80" width="160" height="50" as="geometry" />
        </mxCell>
        <mxCell id="pVMDmuzqO8A00FaKozLz-2" value="" style="endArrow=diamondThin;endFill=1;endSize=24;html=1;rounded=0;exitX=0;exitY=0.5;exitDx=0;exitDy=0;" parent="1" source="JWEfFdAkf09Q-wL82Dwv-4" target="9O78wGGuVozdPFEIfdjM-51" edge="1">
          <mxGeometry width="160" relative="1" as="geometry">
            <mxPoint x="1798" y="1395" as="sourcePoint" />
            <mxPoint x="1670" y="1180" as="targetPoint" />
            <Array as="points" />
          </mxGeometry>
        </mxCell>
        <mxCell id="DZNO_Fi6zl4msauyKun0-1" value="&lt;font style=&quot;font-size: 18px;&quot;&gt;NeuralNetworkGenome&lt;/font&gt;" style="swimlane;fontStyle=1;align=center;verticalAlign=top;childLayout=stackLayout;horizontal=1;startSize=30;horizontalStack=0;resizeParent=1;resizeParentMax=0;resizeLast=0;collapsible=1;marginBottom=0;whiteSpace=wrap;html=1;" parent="1" vertex="1">
          <mxGeometry x="2160" y="1330" width="370" height="370" as="geometry" />
        </mxCell>
        <mxCell id="DZNO_Fi6zl4msauyKun0-2" value="- visionGenome : VisionGenome&lt;div&gt;- hiddenNeuronCount : uint&lt;/div&gt;&lt;div&gt;- synapses : Synapse[]&lt;/div&gt;&lt;div&gt;- hiddenActivationFunctions : NN_ActivationFunctionEnum[]&lt;/div&gt;" style="text;strokeColor=none;fillColor=none;align=left;verticalAlign=top;spacingLeft=4;spacingRight=4;overflow=hidden;rotatable=0;points=[[0,0.5],[1,0.5]];portConstraint=eastwest;whiteSpace=wrap;html=1;" parent="DZNO_Fi6zl4msauyKun0-1" vertex="1">
          <mxGeometry y="30" width="370" height="90" as="geometry" />
        </mxCell>
        <mxCell id="DZNO_Fi6zl4msauyKun0-3" value="" style="line;strokeWidth=1;fillColor=none;align=left;verticalAlign=middle;spacingTop=-1;spacingLeft=3;spacingRight=3;rotatable=0;labelPosition=right;points=[];portConstraint=eastwest;strokeColor=inherit;" parent="DZNO_Fi6zl4msauyKun0-1" vertex="1">
          <mxGeometry y="120" width="370" height="8" as="geometry" />
        </mxCell>
        <mxCell id="DZNO_Fi6zl4msauyKun0-4" value="+ NeuralNetworkGenome (visionGenome : VisionGenome, synapses : Synapse[] = null, hiddenActivationFunctions : NN_ActivationFunctionEnum[] = null)&lt;div&gt;+ getSynapsesCopy () : Synapse[]&lt;/div&gt;&lt;div&gt;+ getHiddenActivationFunctionsCopy () : NN_ActivationFunctionEnum[]&lt;br&gt;&lt;div&gt;+ getInputNeuronCount () : uint&lt;/div&gt;&lt;div&gt;+ getHiddenNeuronCount () : uint&lt;/div&gt;&lt;div&gt;+ getVisionNeuronCount () : uint&lt;/div&gt;&lt;div&gt;+ getVisionGenomeCopy () : VisionGenome&lt;/div&gt;&lt;div&gt;- mutate_createSynapse ()&lt;/div&gt;&lt;div&gt;- mutate_modifySynapse ()&lt;/div&gt;&lt;div&gt;- mutate_evolveSynapse ()&lt;/div&gt;&lt;div&gt;- mutate_removeSynapse ()&lt;/div&gt;&lt;div&gt;- mutate_modifyNeuron ()&lt;/div&gt;&lt;div&gt;- mutate_removeNeuron ()&lt;/div&gt;&lt;/div&gt;" style="text;strokeColor=none;fillColor=none;align=left;verticalAlign=top;spacingLeft=4;spacingRight=4;overflow=hidden;rotatable=0;points=[[0,0.5],[1,0.5]];portConstraint=eastwest;whiteSpace=wrap;html=1;" parent="DZNO_Fi6zl4msauyKun0-1" vertex="1">
          <mxGeometry y="128" width="370" height="242" as="geometry" />
        </mxCell>
        <mxCell id="DZNO_Fi6zl4msauyKun0-5" value="Extends" style="endArrow=block;endSize=16;endFill=0;html=1;rounded=0;exitX=0.5;exitY=0;exitDx=0;exitDy=0;entryX=0.534;entryY=1.04;entryDx=0;entryDy=0;entryPerimeter=0;" parent="1" source="DZNO_Fi6zl4msauyKun0-1" target="9O78wGGuVozdPFEIfdjM-3" edge="1">
          <mxGeometry width="160" relative="1" as="geometry">
            <mxPoint x="1900" y="1210" as="sourcePoint" />
            <mxPoint x="2116" y="998" as="targetPoint" />
          </mxGeometry>
        </mxCell>
        <mxCell id="DZNO_Fi6zl4msauyKun0-6" value="" style="endArrow=diamondThin;endFill=1;endSize=24;html=1;rounded=0;exitX=0;exitY=0.5;exitDx=0;exitDy=0;" parent="1" source="DZNO_Fi6zl4msauyKun0-4" target="9O78wGGuVozdPFEIfdjM-25" edge="1">
          <mxGeometry width="160" relative="1" as="geometry">
            <mxPoint x="1890" y="1720" as="sourcePoint" />
            <mxPoint x="890" y="1120" as="targetPoint" />
            <Array as="points">
              <mxPoint x="1420" y="1830" />
              <mxPoint x="930" y="1600" />
            </Array>
          </mxGeometry>
        </mxCell>
        <mxCell id="DZNO_Fi6zl4msauyKun0-7" value="&lt;font style=&quot;font-size: 18px;&quot;&gt;Wizbit&lt;/font&gt;" style="swimlane;fontStyle=1;align=center;verticalAlign=top;childLayout=stackLayout;horizontal=1;startSize=30;horizontalStack=0;resizeParent=1;resizeParentMax=0;resizeLast=0;collapsible=1;marginBottom=0;whiteSpace=wrap;html=1;" parent="1" vertex="1">
          <mxGeometry x="520" y="1520" width="260" height="280" as="geometry" />
        </mxCell>
        <mxCell id="DZNO_Fi6zl4msauyKun0-8" value="- stats : WizbitStats&lt;div&gt;- ai : NeuralNetwork&lt;/div&gt;&lt;div&gt;(to be extended&amp;nbsp; with spells)&lt;/div&gt;&lt;div&gt;&lt;br&gt;&lt;/div&gt;" style="text;strokeColor=none;fillColor=none;align=left;verticalAlign=top;spacingLeft=4;spacingRight=4;overflow=hidden;rotatable=0;points=[[0,0.5],[1,0.5]];portConstraint=eastwest;whiteSpace=wrap;html=1;" parent="DZNO_Fi6zl4msauyKun0-7" vertex="1">
          <mxGeometry y="30" width="260" height="110" as="geometry" />
        </mxCell>
        <mxCell id="DZNO_Fi6zl4msauyKun0-9" value="" style="line;strokeWidth=1;fillColor=none;align=left;verticalAlign=middle;spacingTop=-1;spacingLeft=3;spacingRight=3;rotatable=0;labelPosition=right;points=[];portConstraint=eastwest;strokeColor=inherit;" parent="DZNO_Fi6zl4msauyKun0-7" vertex="1">
          <mxGeometry y="140" width="260" height="8" as="geometry" />
        </mxCell>
        <mxCell id="DZNO_Fi6zl4msauyKun0-10" value="-&amp;gt; movement and rotatiton logic&lt;div&gt;-&amp;gt; uses ai to take data from the enviornment and couples it with its own stats to create the ai_input&lt;/div&gt;&lt;div&gt;-&amp;gt; the ai_input is passed to ai&#39;s run method and an ai_output is returned&lt;/div&gt;&lt;div&gt;-&amp;gt; the ai_output is used to decide the following actions&lt;/div&gt;" style="text;strokeColor=none;fillColor=none;align=left;verticalAlign=top;spacingLeft=4;spacingRight=4;overflow=hidden;rotatable=0;points=[[0,0.5],[1,0.5]];portConstraint=eastwest;whiteSpace=wrap;html=1;" parent="DZNO_Fi6zl4msauyKun0-7" vertex="1">
          <mxGeometry y="148" width="260" height="132" as="geometry" />
        </mxCell>
        <mxCell id="DZNO_Fi6zl4msauyKun0-11" value="" style="endArrow=diamondThin;endFill=1;endSize=24;html=1;rounded=0;exitX=0.03;exitY=1.044;exitDx=0;exitDy=0;entryX=0.75;entryY=0;entryDx=0;entryDy=0;exitPerimeter=0;" parent="1" source="9O78wGGuVozdPFEIfdjM-25" target="DZNO_Fi6zl4msauyKun0-7" edge="1">
          <mxGeometry width="160" relative="1" as="geometry">
            <mxPoint x="598" y="1289" as="sourcePoint" />
            <mxPoint x="460" y="1090" as="targetPoint" />
            <Array as="points" />
          </mxGeometry>
        </mxCell>
        <mxCell id="DZNO_Fi6zl4msauyKun0-12" value="&lt;font style=&quot;font-size: 18px;&quot;&gt;Synapse (Struct)&lt;/font&gt;" style="swimlane;fontStyle=1;align=center;verticalAlign=top;childLayout=stackLayout;horizontal=1;startSize=38;horizontalStack=0;resizeParent=1;resizeParentMax=0;resizeLast=0;collapsible=1;marginBottom=0;whiteSpace=wrap;html=1;" parent="1" vertex="1">
          <mxGeometry x="395" y="910" width="160" height="154" as="geometry" />
        </mxCell>
        <mxCell id="DZNO_Fi6zl4msauyKun0-13" value="+ sourceIndex : uint&lt;div&gt;+ destinationIndex : uint&lt;/div&gt;&lt;div&gt;+ weight : double&lt;/div&gt;" style="text;strokeColor=none;fillColor=none;align=left;verticalAlign=top;spacingLeft=4;spacingRight=4;overflow=hidden;rotatable=0;points=[[0,0.5],[1,0.5]];portConstraint=eastwest;whiteSpace=wrap;html=1;" parent="DZNO_Fi6zl4msauyKun0-12" vertex="1">
          <mxGeometry y="38" width="160" height="82" as="geometry" />
        </mxCell>
        <mxCell id="DZNO_Fi6zl4msauyKun0-14" value="" style="line;strokeWidth=1;fillColor=none;align=left;verticalAlign=middle;spacingTop=-1;spacingLeft=3;spacingRight=3;rotatable=0;labelPosition=right;points=[];portConstraint=eastwest;strokeColor=inherit;" parent="DZNO_Fi6zl4msauyKun0-12" vertex="1">
          <mxGeometry y="120" width="160" height="8" as="geometry" />
        </mxCell>
        <mxCell id="DZNO_Fi6zl4msauyKun0-15" value="(none)" style="text;strokeColor=none;fillColor=none;align=left;verticalAlign=top;spacingLeft=4;spacingRight=4;overflow=hidden;rotatable=0;points=[[0,0.5],[1,0.5]];portConstraint=eastwest;whiteSpace=wrap;html=1;" parent="DZNO_Fi6zl4msauyKun0-12" vertex="1">
          <mxGeometry y="128" width="160" height="26" as="geometry" />
        </mxCell>
        <mxCell id="DZNO_Fi6zl4msauyKun0-16" value="" style="endArrow=diamondThin;endFill=1;endSize=24;html=1;rounded=0;exitX=1;exitY=0.5;exitDx=0;exitDy=0;entryX=0;entryY=0.5;entryDx=0;entryDy=0;" parent="1" source="DZNO_Fi6zl4msauyKun0-13" target="9O78wGGuVozdPFEIfdjM-23" edge="1">
          <mxGeometry width="160" relative="1" as="geometry">
            <mxPoint x="712" y="1000" as="sourcePoint" />
            <mxPoint x="540" y="1120" as="targetPoint" />
            <Array as="points" />
          </mxGeometry>
        </mxCell>
        <mxCell id="DZNO_Fi6zl4msauyKun0-17" value="&lt;font style=&quot;font-size: 18px;&quot;&gt;Neuron (Struct)&lt;/font&gt;" style="swimlane;fontStyle=1;align=center;verticalAlign=top;childLayout=stackLayout;horizontal=1;startSize=38;horizontalStack=0;resizeParent=1;resizeParentMax=0;resizeLast=0;collapsible=1;marginBottom=0;whiteSpace=wrap;html=1;" parent="1" vertex="1">
          <mxGeometry x="395" y="1120" width="255" height="310" as="geometry" />
        </mxCell>
        <mxCell id="DZNO_Fi6zl4msauyKun0-18" value="- newStimulation : double&lt;div&gt;- stimulation : double&amp;nbsp;&lt;/div&gt;&lt;div&gt;- activationFunction : NN_ActivationFunctionEnunm&lt;/div&gt;" style="text;strokeColor=none;fillColor=none;align=left;verticalAlign=top;spacingLeft=4;spacingRight=4;overflow=hidden;rotatable=0;points=[[0,0.5],[1,0.5]];portConstraint=eastwest;whiteSpace=wrap;html=1;" parent="DZNO_Fi6zl4msauyKun0-17" vertex="1">
          <mxGeometry y="38" width="255" height="82" as="geometry" />
        </mxCell>
        <mxCell id="DZNO_Fi6zl4msauyKun0-19" value="" style="line;strokeWidth=1;fillColor=none;align=left;verticalAlign=middle;spacingTop=-1;spacingLeft=3;spacingRight=3;rotatable=0;labelPosition=right;points=[];portConstraint=eastwest;strokeColor=inherit;" parent="DZNO_Fi6zl4msauyKun0-17" vertex="1">
          <mxGeometry y="120" width="255" height="8" as="geometry" />
        </mxCell>
        <mxCell id="DZNO_Fi6zl4msauyKun0-20" value="+ Neuron (activationFunction : NN_ActivationFunctionEnum)&lt;div&gt;+ step ()&lt;/div&gt;&lt;div&gt;+ stimulate (input : double)&lt;/div&gt;&lt;div&gt;+ getOutput () : double&lt;/div&gt;&lt;div&gt;+ getStimulation () : double&lt;/div&gt;&lt;div&gt;+ getNewStimulation : double&lt;/div&gt;&lt;div&gt;+ activationFunction (stimulation : double) : double {static, one for every value in NN_ActivationFunctionEnum}&lt;/div&gt;" style="text;strokeColor=none;fillColor=none;align=left;verticalAlign=top;spacingLeft=4;spacingRight=4;overflow=hidden;rotatable=0;points=[[0,0.5],[1,0.5]];portConstraint=eastwest;whiteSpace=wrap;html=1;" parent="DZNO_Fi6zl4msauyKun0-17" vertex="1">
          <mxGeometry y="128" width="255" height="182" as="geometry" />
        </mxCell>
        <mxCell id="DZNO_Fi6zl4msauyKun0-21" value="" style="endArrow=diamondThin;endFill=1;endSize=24;html=1;rounded=0;exitX=1;exitY=0.5;exitDx=0;exitDy=0;entryX=0;entryY=0.5;entryDx=0;entryDy=0;" parent="1" source="DZNO_Fi6zl4msauyKun0-18" target="9O78wGGuVozdPFEIfdjM-25" edge="1">
          <mxGeometry width="160" relative="1" as="geometry">
            <mxPoint x="490" y="1162" as="sourcePoint" />
            <mxPoint x="890" y="1160" as="targetPoint" />
            <Array as="points" />
          </mxGeometry>
        </mxCell>
        <mxCell id="DZNO_Fi6zl4msauyKun0-22" value="&lt;font style=&quot;font-size: 18px;&quot;&gt;NN_ActivationFunctionEnum&lt;/font&gt;" style="html=1;whiteSpace=wrap;" parent="1" vertex="1">
          <mxGeometry x="85" y="1080" width="250" height="50" as="geometry" />
        </mxCell>
        <mxCell id="DZNO_Fi6zl4msauyKun0-23" value="" style="endArrow=diamondThin;endFill=1;endSize=24;html=1;rounded=0;exitX=0.5;exitY=1;exitDx=0;exitDy=0;entryX=0;entryY=0.5;entryDx=0;entryDy=0;" parent="1" source="DZNO_Fi6zl4msauyKun0-22" target="DZNO_Fi6zl4msauyKun0-18" edge="1">
          <mxGeometry width="160" relative="1" as="geometry">
            <mxPoint x="135" y="1323" as="sourcePoint" />
            <mxPoint x="535" y="1180" as="targetPoint" />
            <Array as="points" />
          </mxGeometry>
        </mxCell>
        <mxCell id="ZCERC5yAJ1F9aT5ZhW6y-1" value="" style="endArrow=diamondThin;endFill=1;endSize=24;html=1;rounded=0;exitX=0.25;exitY=1;exitDx=0;exitDy=0;entryX=-0.004;entryY=0.766;entryDx=0;entryDy=0;entryPerimeter=0;" parent="1" source="DZNO_Fi6zl4msauyKun0-22" target="DZNO_Fi6zl4msauyKun0-4" edge="1">
          <mxGeometry width="160" relative="1" as="geometry">
            <mxPoint x="65" y="1180" as="sourcePoint" />
            <mxPoint x="1890" y="1860" as="targetPoint" />
            <Array as="points">
              <mxPoint x="300" y="1880" />
              <mxPoint x="1110" y="2040" />
            </Array>
          </mxGeometry>
        </mxCell>
        <mxCell id="ZCERC5yAJ1F9aT5ZhW6y-2" value="" style="endArrow=diamondThin;endFill=1;endSize=24;html=1;rounded=0;exitX=1;exitY=0.5;exitDx=0;exitDy=0;entryX=0;entryY=0.5;entryDx=0;entryDy=0;" parent="1" source="JWEfFdAkf09Q-wL82Dwv-4" target="DZNO_Fi6zl4msauyKun0-2" edge="1">
          <mxGeometry width="160" relative="1" as="geometry">
            <mxPoint x="1880" y="1540" as="sourcePoint" />
            <mxPoint x="1520" y="1548" as="targetPoint" />
            <Array as="points" />
          </mxGeometry>
        </mxCell>
        <mxCell id="ZCERC5yAJ1F9aT5ZhW6y-3" value="" style="endArrow=diamondThin;endFill=1;endSize=24;html=1;rounded=0;exitX=0;exitY=0.5;exitDx=0;exitDy=0;entryX=0.003;entryY=1.003;entryDx=0;entryDy=0;entryPerimeter=0;" parent="1" source="DZNO_Fi6zl4msauyKun0-13" target="DZNO_Fi6zl4msauyKun0-4" edge="1">
          <mxGeometry width="160" relative="1" as="geometry">
            <mxPoint x="50" y="1195" as="sourcePoint" />
            <mxPoint x="2170" y="1640" as="targetPoint" />
            <Array as="points">
              <mxPoint x="30" y="1040" />
              <mxPoint x="287" y="1945" />
              <mxPoint x="1097" y="2105" />
            </Array>
          </mxGeometry>
        </mxCell>
        <mxCell id="_YigSNQfI5zQPhQUPtOs-1" value="" style="endArrow=diamondThin;endFill=1;endSize=24;html=1;rounded=0;exitX=0.5;exitY=0;exitDx=0;exitDy=0;entryX=0.5;entryY=0;entryDx=0;entryDy=0;" parent="1" source="9O78wGGuVozdPFEIfdjM-1" target="9O78wGGuVozdPFEIfdjM-8" edge="1">
          <mxGeometry width="160" relative="1" as="geometry">
            <mxPoint x="1330" y="-88" as="sourcePoint" />
            <mxPoint x="1645" y="-90" as="targetPoint" />
            <Array as="points">
              <mxPoint x="2130" y="320" />
              <mxPoint x="1380" y="50" />
              <mxPoint x="680" y="40" />
            </Array>
          </mxGeometry>
        </mxCell>
      </root>
    </mxGraphModel>
  </diagram>
</mxfile>
